<svg id="noun_medical_958294" xmlns="http://www.w3.org/2000/svg" width="25.189" height="21.786" viewBox="0 0 25.189 21.786">
  <g id="Group_184" data-name="Group 184" transform="translate(0 0)">
    <path id="Path_16" data-name="Path 16" d="M24.545,11.648H19.716v-1.7A1.651,1.651,0,0,0,18.069,8.3h-6.75A1.651,1.651,0,0,0,9.673,9.946v1.7h-5.1A2.459,2.459,0,0,0,2.1,14.117v13.5a2.459,2.459,0,0,0,2.469,2.469H24.545a2.752,2.752,0,0,0,2.744-2.744V14.391A2.752,2.752,0,0,0,24.545,11.648ZM11.319,9.919h6.75v1.7h-6.75ZM25.642,27.37a1.1,1.1,0,0,1-1.1,1.1H4.569a.808.808,0,0,1-.823-.823V14.117a.808.808,0,0,1,.823-.823H24.545a1.1,1.1,0,0,1,1.1,1.1Z" transform="translate(-2.1 -8.3)" fill="#4985b7"/>
    <path id="Path_17" data-name="Path 17" d="M40.318,42.248H37.794V39.723a.823.823,0,1,0-1.646,0v2.524H33.623a.823.823,0,0,0,0,1.646h2.524v2.524a.823.823,0,1,0,1.646,0V43.894h2.524a.823.823,0,0,0,0-1.646Z" transform="translate(-24.376 -30.504)" fill="#4985b7"/>
  </g>
</svg>
