<svg xmlns="http://www.w3.org/2000/svg" width="30.161" height="21.113" viewBox="0 0 30.161 21.113">
  <path id="users" d="M25.637,41.048a3.77,3.77,0,1,0-3.77-3.77A3.769,3.769,0,0,0,25.637,41.048Zm0-6.032a2.262,2.262,0,1,1-2.262,2.262A2.263,2.263,0,0,1,25.637,35.016Zm-10.556,7.54A5.278,5.278,0,1,0,9.8,37.278,5.276,5.276,0,0,0,15.081,42.556Zm0-9.048a3.77,3.77,0,1,1-3.77,3.77A3.775,3.775,0,0,1,15.081,33.508Zm11.5,9.048H24.695a3.409,3.409,0,0,0-1.937.608,6.388,6.388,0,0,1,1.2,1.056,1.875,1.875,0,0,1,.74-.156H26.58a2.177,2.177,0,0,1,2.074,2.262.754.754,0,0,0,1.508,0A3.684,3.684,0,0,0,26.58,42.556ZM4.524,41.048a3.77,3.77,0,1,0-3.77-3.77A3.769,3.769,0,0,0,4.524,41.048Zm0-6.032a2.262,2.262,0,1,1-2.262,2.262A2.263,2.263,0,0,1,4.524,35.016ZM18.855,43.5c-1.574,0-1.965.566-3.775.566s-2.2-.566-3.775-.566a5.194,5.194,0,0,0-4.35,2.21,5.4,5.4,0,0,0-.924,3.03v2.111a2.263,2.263,0,0,0,2.262,2.262H21.867a2.263,2.263,0,0,0,2.262-2.262V48.74a5.4,5.4,0,0,0-.924-3.03,5.194,5.194,0,0,0-4.35-2.21Zm3.765,7.352a.756.756,0,0,1-.754.754H8.294a.756.756,0,0,1-.754-.754V48.74A3.915,3.915,0,0,1,8.2,46.553a3.688,3.688,0,0,1,3.1-1.546c1.291,0,1.753.566,3.78.566s2.488-.566,3.775-.566a3.688,3.688,0,0,1,3.1,1.546,3.915,3.915,0,0,1,.664,2.187v2.111ZM7.4,43.164a3.432,3.432,0,0,0-1.937-.608H3.582A3.684,3.684,0,0,0,0,46.327a.754.754,0,0,0,1.508,0,2.177,2.177,0,0,1,2.074-2.262H5.467a1.875,1.875,0,0,1,.74.156,6.539,6.539,0,0,1,1.2-1.056Z" transform="translate(0 -32)" fill="#4985b7"/>
</svg>
